<mxfile host="app.diagrams.net" modified="2023-09-13T19:55:00.412Z" agent="Mozilla/5.0 (Windows NT 10.0; Win64; x64) AppleWebKit/537.36 (KHTML, like Gecko) Chrome/116.0.0.0 Safari/537.36" version="21.1.5" etag="b7faqnm4F9PKO3SK8SjT" type="github">
  <diagram name="Page-1" id="njZkPR6JvYw7sjy66bjr">
    <mxGraphModel>
      <root>
        <mxCell id="0" />
        <mxCell id="1" parent="0" />
      </root>
    </mxGraphModel>
  </diagram>
</mxfile>
